<?xml version="1.0" standalone="no"?>
<!DOCTYPE svg PUBLIC "-//W3C//DTD SVG 20010904//EN"
 "http://www.w3.org/TR/2001/REC-SVG-20010904/DTD/svg10.dtd">
<svg version="1.0" xmlns="http://www.w3.org/2000/svg"
 width="707.000000pt" height="707.000000pt" viewBox="0 0 707.000000 707.000000"
 preserveAspectRatio="xMidYMid meet">
<metadata>
Created by potrace 1.14, written by Peter Selinger 2001-2017
</metadata>
<g transform="translate(0.000000,707.000000) scale(0.100000,-0.100000)"
fill="#000000" stroke="none">
<path d="M1978 5516 c-1 -2 -57 -6 -123 -9 -66 -4 -145 -11 -175 -16 -30 -6
-66 -12 -80 -15 -125 -22 -327 -83 -400 -121 -16 -8 -32 -15 -35 -15 -7 1
-105 -48 -180 -90 -179 -98 -391 -276 -542 -455 -188 -224 -348 -556 -411
-856 l-18 -87 415 2 415 1 31 80 c69 176 153 305 275 425 290 285 700 399
1087 305 120 -30 307 -109 354 -151 8 -8 21 -14 27 -14 7 0 12 -4 12 -8 0 -4
14 -16 32 -27 18 -10 73 -59 123 -109 125 -125 213 -262 274 -428 l27 -73 448
0 448 0 28 75 c113 312 354 560 660 683 226 90 438 106 705 52 53 -10 178 -56
240 -87 169 -85 309 -203 423 -356 57 -78 138 -233 166 -318 l17 -51 414 -1
c350 0 415 2 415 14 0 22 -46 212 -68 280 -134 412 -405 772 -774 1027 -38 26
-71 47 -74 47 -3 0 -18 8 -32 19 -112 79 -434 202 -617 236 -315 58 -670 42
-926 -41 -25 -8 -54 -16 -65 -18 -82 -17 -327 -133 -464 -221 -144 -92 -383
-303 -447 -395 -44 -63 -47 -64 -78 -23 -16 21 -81 90 -144 154 -179 179 -371
312 -587 407 -228 100 -437 152 -674 167 -52 4 -100 8 -107 10 -6 2 -13 2 -15
1z"/>
<path d="M6 3292 c-2 -1 3 -35 10 -75 59 -342 198 -651 412 -920 60 -76 195
-214 260 -267 24 -19 54 -43 65 -54 28 -24 152 -107 208 -140 324 -191 676
-281 1054 -271 88 2 169 6 180 8 11 3 43 8 70 11 160 21 385 92 563 176 98 47
352 205 352 219 0 4 12 14 28 23 49 29 256 238 305 308 l17 25 37 -45 c63 -76
234 -244 308 -301 291 -227 601 -358 980 -413 95 -14 389 -15 485 -2 163 23
420 91 525 140 17 8 59 28 95 45 461 217 831 629 1005 1121 48 135 88 307 89
385 l1 30 -403 0 c-260 0 -406 -3 -411 -10 -4 -5 -16 -40 -25 -76 -25 -95
-113 -271 -183 -364 -193 -259 -484 -428 -794 -461 -151 -16 -319 -5 -429 28
-334 101 -536 258 -726 563 -10 17 -19 32 -20 35 0 3 -11 28 -23 55 -24 51
-66 175 -73 210 -3 19 -12 20 -432 20 -235 0 -430 -3 -432 -7 -3 -5 -7 -16 -9
-26 -19 -103 -130 -340 -190 -408 -5 -6 -23 -28 -40 -50 -73 -93 -179 -186
-300 -262 -88 -55 -280 -130 -375 -146 -153 -26 -361 -25 -460 4 -16 5 -30 7
-30 5 0 -10 -213 71 -282 107 -138 74 -274 189 -376 320 -62 79 -152 249 -177
333 -10 33 -23 76 -30 95 l-13 35 -407 0 c-223 0 -408 -1 -409 -3z"/>
</g>
</svg>
