<svg width="25" height="17" viewBox="0 0 25 17" fill="none" xmlns="http://www.w3.org/2000/svg">
<path d="M21.1296 2.19706C19.576 1.58218 17.9149 1.13531 16.1782 0.880859C15.9649 1.20706 15.7157 1.6458 15.544 1.99481C13.6978 1.75996 11.8687 1.75996 10.0565 1.99481C9.88471 1.6458 9.62987 1.20706 9.41468 0.880859C7.67612 1.13531 6.01307 1.58382 4.45951 2.20031C1.32596 6.20593 0.476505 10.112 0.901233 13.9627C2.97957 15.2756 4.99373 16.0732 6.97389 16.5951C7.4628 16.0259 7.89885 15.4208 8.27449 14.7831C7.55907 14.5531 6.87385 14.2693 6.22639 13.9399C6.39816 13.8322 6.56617 13.7197 6.7285 13.6039C10.6775 15.1664 14.9682 15.1664 18.8701 13.6039C19.0343 13.7197 19.2023 13.8322 19.3722 13.9399C18.7228 14.271 18.0357 14.5547 17.3203 14.7847C17.6959 15.4208 18.1301 16.0275 18.6209 16.5967C20.6029 16.0748 22.619 15.2773 24.6973 13.9627C25.1957 9.49881 23.846 5.62856 21.1296 2.19706ZM8.81249 11.5946C7.62704 11.5946 6.65487 10.6584 6.65487 9.51838C6.65487 8.37835 7.60628 7.44055 8.81249 7.44055C10.0187 7.44055 10.9909 8.3767 10.9701 9.51838C10.972 10.6584 10.0187 11.5946 8.81249 11.5946ZM16.7861 11.5946C15.6006 11.5946 14.6284 10.6584 14.6284 9.51838C14.6284 8.37835 15.5798 7.44055 16.7861 7.44055C17.9923 7.44055 18.9644 8.3767 18.9437 9.51838C18.9437 10.6584 17.9923 11.5946 16.7861 11.5946Z" fill="#1FE5D3"/>
</svg>
