<svg width="243" height="54" viewBox="0 0 243 54" fill="none" xmlns="http://www.w3.org/2000/svg">
<path d="M64.4858 18.1471V40.5258H56.823V18.1471C56.8221 15.3866 55.729 12.7394 53.784 10.7877C51.839 8.83607 49.2013 7.73968 46.451 7.73968C43.7011 7.73968 41.0637 8.83617 39.1192 10.7879C37.1747 12.7397 36.0823 15.3869 36.0823 18.1471V40.5258H28.4163V18.1471C28.4163 15.3869 27.3239 12.7397 25.3794 10.7879C23.4349 8.83617 20.7975 7.73968 18.0475 7.73968C16.6856 7.73926 15.337 8.00814 14.0786 8.53097C12.8202 9.0538 11.6768 9.82034 10.7137 10.7868C9.75049 11.7533 8.98644 12.9007 8.46517 14.1636C7.94389 15.4265 7.67558 16.7801 7.67558 18.1471V40.5258H2.85118e-07V18.1471C-0.000420889 15.7698 0.465778 13.4157 1.37196 11.2193C2.27814 9.02285 3.60654 7.02715 5.2813 5.34615C6.95606 3.66515 8.94436 2.33178 11.1326 1.42222C13.3209 0.512667 15.6663 0.0447515 18.0347 0.0451742C20.7724 0.0427875 23.4746 0.667015 25.9358 1.87041C28.397 3.0738 30.5524 4.82466 32.2381 6.98985C33.9229 4.82455 36.0777 3.07357 38.5384 1.87013C40.9991 0.666704 43.701 0.04256 46.4382 0.0451742C48.8078 0.0430597 51.1545 0.509732 53.3442 1.41853C55.534 2.32733 57.5238 3.66042 59.1999 5.34159C60.876 7.02276 62.2056 9.01905 63.1126 11.2163C64.0196 13.4136 64.4862 15.7687 64.4858 18.1471Z" fill="white"/>
<path d="M184.9 1.38696H193.438L176.663 40.5128H166.356L149.581 1.38696H158.119L171.511 32.6156L184.9 1.38696Z" fill="white"/>
<path d="M242.707 1.38696L226.292 39.557L222.38 48.6482L220.078 53.9999H211.534L217.651 39.7791L198.754 1.38696H207.504L221.733 30.2921L234.163 1.38696H242.707Z" fill="white"/>
<path d="M113.316 24.0876C112.825 26.9804 111.72 29.7332 110.074 32.1587C108.194 34.9444 105.661 37.2246 102.699 38.7995C99.7361 40.3744 96.4339 41.1959 93.0815 41.1919C88.2422 41.1924 83.5584 39.4762 79.8577 36.3464C76.1569 33.2166 73.6773 28.8746 72.8569 24.0876H80.0901C80.8589 26.9566 82.5482 29.4914 84.8966 31.3C87.2449 33.1085 90.1215 34.0901 93.0815 34.0928C96.0414 34.0901 98.918 33.1085 101.266 31.3C103.615 29.4914 105.304 26.9566 106.073 24.0876H113.316Z" fill="white"/>
<path d="M147.128 16.2901H139.789C138.888 13.6134 137.174 11.2872 134.889 9.63863C132.603 7.99006 129.859 7.10197 127.045 7.09918C124.23 7.10197 121.486 7.99006 119.201 9.63863C116.915 11.2872 115.201 13.6134 114.3 16.2901H106.974C107.523 13.6925 108.572 11.2275 110.061 9.03327C111.942 6.24757 114.474 3.96736 117.437 2.39247C120.4 0.817577 123.702 -0.00390735 127.054 1.3973e-05C131.753 -0.00177313 136.309 1.61487 139.963 4.57982C143.616 7.54477 146.146 11.6784 147.128 16.2901Z" fill="white"/>
<path d="M113.178 16.2901H105.836C104.935 13.6134 103.221 11.2872 100.935 9.63863C98.6492 7.99006 95.906 7.10197 93.0911 7.09918C90.2763 7.10197 87.5331 7.99006 85.2471 9.63863C82.9612 11.2872 81.2474 13.6134 80.3466 16.2901H73.0205C74.0026 11.679 76.5314 7.54573 80.1844 4.58084C83.8374 1.61595 88.3933 -0.0010362 93.0911 1.3973e-05C96.4436 -0.00390735 99.7458 0.817577 102.708 2.39247C105.671 3.96736 108.203 6.24757 110.084 9.03327C111.576 11.227 112.627 13.6921 113.178 16.2901Z" fill="#21E7D6"/>
<path d="M147.282 24.0876C146.462 28.8746 143.982 33.2166 140.281 36.3464C136.58 39.4762 131.897 41.1924 127.057 41.1919C123.705 41.1959 120.403 40.3744 117.44 38.7995C114.478 37.2246 111.945 34.9444 110.065 32.1587C108.419 29.7332 107.314 26.9804 106.823 24.0876H114.056C114.825 26.9566 116.515 29.4914 118.863 31.3C121.211 33.1085 124.088 34.0901 127.048 34.0928C130.008 34.0901 132.884 33.1085 135.233 31.3C137.581 29.4914 139.27 26.9566 140.039 24.0876H147.282Z" fill="#21E7D6"/>
</svg>
