<svg width="23" height="20" viewBox="0 0 23 20" fill="none" xmlns="http://www.w3.org/2000/svg">
<path fill-rule="evenodd" clip-rule="evenodd" d="M1.35494 9.19236C6.3714 7.02619 12.4388 3.94275 17.697 1.85928C22.5512 0.0214097 22.4701 0.522647 21.7419 5.52582C21.1743 9.52652 20.5255 13.5264 19.8816 17.5271C19.6383 19.4435 18.6652 20.4434 16.6452 19.2814L10.3353 14.6976C9.44324 13.9458 9.68652 13.361 10.4164 12.6141L16.2405 6.94682C17.7813 5.35958 17.0515 4.77981 15.2674 6.02789L7.25857 11.6117C6.12326 12.4471 4.91252 12.4471 3.61827 12.0294L0.867568 11.0269C-0.916495 10.3586 0.4621 9.60672 1.35413 9.1932L1.35494 9.19236Z" fill="#1FE5D3"/>
</svg>
