<svg width="24" height="19" viewBox="0 0 24 19" fill="none" xmlns="http://www.w3.org/2000/svg">
<path fill-rule="evenodd" clip-rule="evenodd" d="M12.0958 6.45217C11.1846 1.77925 16.955 -1.00047 20.3553 2.36787C20.3553 2.36787 21.8742 1.95384 23.2105 1.12577C22.8192 2.19942 22.0711 3.11514 21.0848 3.72771C21.0848 3.72771 22.9062 3.49146 23.6965 3.01816C23.6965 3.01816 22.9062 4.61504 21.4491 5.20686C22.2385 15.9125 10.3952 22.4186 0.799316 17.0954C0.799316 17.0954 5.53681 17.3356 7.54249 15.0845C7.54249 15.0845 4.62731 15.3207 3.1693 11.8907C3.1693 11.8907 4.26301 12.3047 5.3559 11.7722C5.3559 11.7722 1.9547 11.2396 1.65537 7.27704C1.65537 7.27704 2.74827 8.10511 3.96286 7.8088C3.96286 7.8088 0.197367 5.6209 2.32311 1.65753C2.32311 1.65753 6.33201 6.62275 12.1015 6.44897L12.0958 6.45217Z" fill="#1FE5D3"/>
</svg>
